<svg xmlns="http://www.w3.org/2000/svg" viewBox="0 0 780 640" width="780" height="640" font-family="Helvetica, Arial, sans-serif">
<defs><marker id="arr" viewBox="0 0 10 10" refX="8" refY="5" markerWidth="7" markerHeight="7" orient="auto-start-reverse"><path d="M0,0 L10,5 L0,10 z" fill="#7c3aed"/></marker></defs>
<rect x="0" y="0" width="780" height="640" rx="16" fill="#f8fafc" stroke="#cbd5e1"/>
<text x="390.0" y="30" text-anchor="middle" font-size="18" font-weight="bold" fill="#1f2937">PMF and CDF of X ~ Bin(10, 1/2): alternative-allele reads at depth 10</text>
<text x="100" y="60" font-size="14" font-weight="bold" fill="#1f2937">PMF p(k) = P(X = k)</text>
<line x1="95" y1="220.0" x2="690" y2="220.0" stroke="#e2e8f0"/>
<text x="92" y="224.0" text-anchor="end" font-size="12" fill="#1f2937">0</text>
<line x1="95" y1="170.0" x2="690" y2="170.0" stroke="#e2e8f0"/>
<text x="92" y="174.0" text-anchor="end" font-size="12" fill="#1f2937">0.1</text>
<line x1="95" y1="120.0" x2="690" y2="120.0" stroke="#e2e8f0"/>
<text x="92" y="124.0" text-anchor="end" font-size="12" fill="#1f2937">0.2</text>
<line x1="95" y1="70.0" x2="690" y2="70.0" stroke="#e2e8f0"/>
<text x="92" y="74.0" text-anchor="end" font-size="12" fill="#1f2937">0.3</text>
<rect x="132.0" y="219.5" width="34.4" height="0.5" fill="#93c5fd" stroke="#2563eb"/>
<rect x="181.1" y="215.1" width="34.4" height="4.9" fill="#93c5fd" stroke="#2563eb"/>
<rect x="230.3" y="198.0" width="34.4" height="22.0" fill="#93c5fd" stroke="#2563eb"/>
<rect x="279.5" y="161.4" width="34.4" height="58.6" fill="#93c5fd" stroke="#2563eb"/>
<rect x="328.6" y="117.5" width="34.4" height="102.5" fill="#93c5fd" stroke="#2563eb"/>
<rect x="377.8" y="97.0" width="34.4" height="123.0" fill="#93c5fd" stroke="#2563eb"/>
<rect x="427.0" y="117.5" width="34.4" height="102.5" fill="#93c5fd" stroke="#2563eb"/>
<rect x="476.1" y="161.4" width="34.4" height="58.6" fill="#93c5fd" stroke="#2563eb"/>
<rect x="525.3" y="198.0" width="34.4" height="22.0" fill="#fca5a5" stroke="#dc2626"/>
<rect x="574.5" y="215.1" width="34.4" height="4.9" fill="#fca5a5" stroke="#dc2626"/>
<rect x="623.6" y="219.5" width="34.4" height="0.5" fill="#fca5a5" stroke="#dc2626"/>
<line x1="100" y1="220" x2="690" y2="220" stroke="#64748b"/>
<line x1="100" y1="70" x2="100" y2="220" stroke="#64748b"/>
<text x="149.2" y="238" text-anchor="middle" font-size="12" fill="#1f2937">0</text>
<text x="198.3" y="238" text-anchor="middle" font-size="12" fill="#1f2937">1</text>
<text x="247.5" y="238" text-anchor="middle" font-size="12" fill="#1f2937">2</text>
<text x="296.7" y="238" text-anchor="middle" font-size="12" fill="#1f2937">3</text>
<text x="345.8" y="238" text-anchor="middle" font-size="12" fill="#1f2937">4</text>
<text x="395.0" y="238" text-anchor="middle" font-size="12" fill="#1f2937">5</text>
<text x="444.2" y="238" text-anchor="middle" font-size="12" fill="#1f2937">6</text>
<text x="493.3" y="238" text-anchor="middle" font-size="12" fill="#1f2937">7</text>
<text x="542.5" y="238" text-anchor="middle" font-size="12" fill="#1f2937">8</text>
<text x="591.7" y="238" text-anchor="middle" font-size="12" fill="#1f2937">9</text>
<text x="640.8" y="238" text-anchor="middle" font-size="12" fill="#1f2937">10</text>
<text x="591.7" y="185.0" text-anchor="middle" font-size="12" fill="#991b1b">tail k ≥ 8: 56/1024</text>
<text x="100" y="276" font-size="14" font-weight="bold" fill="#1f2937">CDF F(x) = P(X ≤ x): a right-continuous step function</text>
<line x1="95" y1="540.0" x2="690" y2="540.0" stroke="#e2e8f0"/>
<text x="92" y="544.0" text-anchor="end" font-size="12" fill="#1f2937">0</text>
<line x1="95" y1="477.5" x2="690" y2="477.5" stroke="#e2e8f0"/>
<text x="92" y="481.5" text-anchor="end" font-size="12" fill="#1f2937">0.25</text>
<line x1="95" y1="415.0" x2="690" y2="415.0" stroke="#e2e8f0"/>
<text x="92" y="419.0" text-anchor="end" font-size="12" fill="#1f2937">0.5</text>
<line x1="95" y1="352.5" x2="690" y2="352.5" stroke="#e2e8f0"/>
<text x="92" y="356.5" text-anchor="end" font-size="12" fill="#1f2937">0.75</text>
<line x1="95" y1="290.0" x2="690" y2="290.0" stroke="#e2e8f0"/>
<text x="92" y="294.0" text-anchor="end" font-size="12" fill="#1f2937">1</text>
<line x1="100.0" y1="540.0" x2="149.2" y2="540.0" stroke="#2563eb" stroke-width="2.5"/>
<line x1="149.2" y1="539.8" x2="198.3" y2="539.8" stroke="#2563eb" stroke-width="2.5"/>
<line x1="149.2" y1="540.0" x2="149.2" y2="539.8" stroke="#93c5fd" stroke-width="1" stroke-dasharray="3 3"/>
<circle cx="149.2" cy="540.0" r="3.5" fill="#f8fafc" stroke="#2563eb" stroke-width="1.5"/>
<circle cx="149.2" cy="539.8" r="3.5" fill="#2563eb"/>
<line x1="198.3" y1="537.3" x2="247.5" y2="537.3" stroke="#2563eb" stroke-width="2.5"/>
<line x1="198.3" y1="539.8" x2="198.3" y2="537.3" stroke="#93c5fd" stroke-width="1" stroke-dasharray="3 3"/>
<circle cx="198.3" cy="539.8" r="3.5" fill="#f8fafc" stroke="#2563eb" stroke-width="1.5"/>
<circle cx="198.3" cy="537.3" r="3.5" fill="#2563eb"/>
<line x1="247.5" y1="526.3" x2="296.7" y2="526.3" stroke="#2563eb" stroke-width="2.5"/>
<line x1="247.5" y1="537.3" x2="247.5" y2="526.3" stroke="#93c5fd" stroke-width="1" stroke-dasharray="3 3"/>
<circle cx="247.5" cy="537.3" r="3.5" fill="#f8fafc" stroke="#2563eb" stroke-width="1.5"/>
<circle cx="247.5" cy="526.3" r="3.5" fill="#2563eb"/>
<line x1="296.7" y1="497.0" x2="345.8" y2="497.0" stroke="#2563eb" stroke-width="2.5"/>
<line x1="296.7" y1="526.3" x2="296.7" y2="497.0" stroke="#93c5fd" stroke-width="1" stroke-dasharray="3 3"/>
<circle cx="296.7" cy="526.3" r="3.5" fill="#f8fafc" stroke="#2563eb" stroke-width="1.5"/>
<circle cx="296.7" cy="497.0" r="3.5" fill="#2563eb"/>
<line x1="345.8" y1="445.8" x2="395.0" y2="445.8" stroke="#2563eb" stroke-width="2.5"/>
<line x1="345.8" y1="497.0" x2="345.8" y2="445.8" stroke="#93c5fd" stroke-width="1" stroke-dasharray="3 3"/>
<circle cx="345.8" cy="497.0" r="3.5" fill="#f8fafc" stroke="#2563eb" stroke-width="1.5"/>
<circle cx="345.8" cy="445.8" r="3.5" fill="#2563eb"/>
<line x1="395.0" y1="384.2" x2="444.2" y2="384.2" stroke="#2563eb" stroke-width="2.5"/>
<line x1="395.0" y1="445.8" x2="395.0" y2="384.2" stroke="#93c5fd" stroke-width="1" stroke-dasharray="3 3"/>
<circle cx="395.0" cy="445.8" r="3.5" fill="#f8fafc" stroke="#2563eb" stroke-width="1.5"/>
<circle cx="395.0" cy="384.2" r="3.5" fill="#2563eb"/>
<line x1="444.2" y1="333.0" x2="493.3" y2="333.0" stroke="#2563eb" stroke-width="2.5"/>
<line x1="444.2" y1="384.2" x2="444.2" y2="333.0" stroke="#93c5fd" stroke-width="1" stroke-dasharray="3 3"/>
<circle cx="444.2" cy="384.2" r="3.5" fill="#f8fafc" stroke="#2563eb" stroke-width="1.5"/>
<circle cx="444.2" cy="333.0" r="3.5" fill="#2563eb"/>
<line x1="493.3" y1="303.7" x2="542.5" y2="303.7" stroke="#2563eb" stroke-width="2.5"/>
<line x1="493.3" y1="333.0" x2="493.3" y2="303.7" stroke="#93c5fd" stroke-width="1" stroke-dasharray="3 3"/>
<circle cx="493.3" cy="333.0" r="3.5" fill="#f8fafc" stroke="#2563eb" stroke-width="1.5"/>
<circle cx="493.3" cy="303.7" r="3.5" fill="#2563eb"/>
<line x1="542.5" y1="292.7" x2="591.7" y2="292.7" stroke="#2563eb" stroke-width="2.5"/>
<line x1="542.5" y1="303.7" x2="542.5" y2="292.7" stroke="#93c5fd" stroke-width="1" stroke-dasharray="3 3"/>
<circle cx="542.5" cy="303.7" r="3.5" fill="#f8fafc" stroke="#2563eb" stroke-width="1.5"/>
<circle cx="542.5" cy="292.7" r="3.5" fill="#2563eb"/>
<line x1="591.7" y1="290.2" x2="640.8" y2="290.2" stroke="#2563eb" stroke-width="2.5"/>
<line x1="591.7" y1="292.7" x2="591.7" y2="290.2" stroke="#93c5fd" stroke-width="1" stroke-dasharray="3 3"/>
<circle cx="591.7" cy="292.7" r="3.5" fill="#f8fafc" stroke="#2563eb" stroke-width="1.5"/>
<circle cx="591.7" cy="290.2" r="3.5" fill="#2563eb"/>
<line x1="640.8" y1="290.0" x2="690.0" y2="290.0" stroke="#2563eb" stroke-width="2.5"/>
<line x1="640.8" y1="290.2" x2="640.8" y2="290.0" stroke="#93c5fd" stroke-width="1" stroke-dasharray="3 3"/>
<circle cx="640.8" cy="290.2" r="3.5" fill="#f8fafc" stroke="#2563eb" stroke-width="1.5"/>
<circle cx="640.8" cy="290.0" r="3.5" fill="#2563eb"/>
<line x1="100" y1="540" x2="690" y2="540" stroke="#64748b"/>
<line x1="100" y1="290" x2="100" y2="540" stroke="#64748b"/>
<text x="100.0" y="558" text-anchor="middle" font-size="12" fill="#1f2937">-1</text>
<text x="149.2" y="558" text-anchor="middle" font-size="12" fill="#1f2937">0</text>
<text x="198.3" y="558" text-anchor="middle" font-size="12" fill="#1f2937">1</text>
<text x="247.5" y="558" text-anchor="middle" font-size="12" fill="#1f2937">2</text>
<text x="296.7" y="558" text-anchor="middle" font-size="12" fill="#1f2937">3</text>
<text x="345.8" y="558" text-anchor="middle" font-size="12" fill="#1f2937">4</text>
<text x="395.0" y="558" text-anchor="middle" font-size="12" fill="#1f2937">5</text>
<text x="444.2" y="558" text-anchor="middle" font-size="12" fill="#1f2937">6</text>
<text x="493.3" y="558" text-anchor="middle" font-size="12" fill="#1f2937">7</text>
<text x="542.5" y="558" text-anchor="middle" font-size="12" fill="#1f2937">8</text>
<text x="591.7" y="558" text-anchor="middle" font-size="12" fill="#1f2937">9</text>
<text x="640.8" y="558" text-anchor="middle" font-size="12" fill="#1f2937">10</text>
<text x="690.0" y="558" text-anchor="middle" font-size="12" fill="#1f2937">11</text>
<text x="395.0" y="578" text-anchor="middle" font-size="12" fill="#1f2937">x (number of alternative-allele reads)</text>
<line x1="493.3" y1="303.7" x2="704.0" y2="303.7" stroke="#dc2626" stroke-dasharray="4 3"/>
<line x1="704.0" y1="290.0" x2="704.0" y2="303.7" stroke="#dc2626" stroke-width="2"/>
<text x="698.0" y="323.0" text-anchor="end" font-size="12" fill="#991b1b">tail P(X ≥ 8) = 1 − F(7) = 0.0547</text>
<text x="698.0" y="338.0" text-anchor="end" font-size="12" fill="#991b1b">(gap between F(7) = 0.9453 and 1)</text>
<line x1="100.0" y1="415.0" x2="393.0" y2="415.0" stroke="#7c3aed" stroke-width="1.5" marker-end="url(#arr)"/>
<line x1="395.0" y1="419.0" x2="395.0" y2="536.0" stroke="#7c3aed" stroke-width="1.5" marker-end="url(#arr)"/>
<text x="129.2" y="407.0" font-size="12" fill="#5b21b6">quantile: smallest x with F(x) ≥ 0.5 is 5</text>
<text x="452.2" y="490.0" font-size="12" fill="#1f2937">jump at k has height p(k); filled dot = F(k)</text>
</svg>
