<svg xmlns="http://www.w3.org/2000/svg" viewBox="0 0 760 400" width="760" height="400" font-family="Helvetica, Arial, sans-serif">
<defs><clipPath id="panel-a"><rect x="20" y="84" width="350" height="266" rx="10"/></clipPath></defs>
<rect x="0" y="0" width="760" height="400" rx="16" fill="#f8fafc" stroke="#cbd5e1"/>
<text x="380" y="30" font-size="18" fill="#1f2937" text-anchor="middle" font-weight="bold">Electric field lines: a dipole and two parallel plates</text>
<rect x="20" y="50" width="350" height="300" rx="10" fill="#eef2ff" stroke="#c7d2fe"/>
<text x="195" y="72" font-size="14" fill="#1f2937" text-anchor="middle">(a) Dipole: lines leave +q and end on −q</text>
<g clip-path="url(#panel-a)" fill="none" stroke="#64748b" stroke-width="1.4">
<path d="M142.8 207.5 L144.7 207.1 L146.6 206.7 L148.5 206.4 L150.4 206.0 L152.3 205.6 L154.2 205.3 L156.2 204.9 L158.1 204.6 L160.0 204.3 L161.9 203.9 L163.9 203.6 L165.8 203.3 L167.7 203.0 L169.6 202.8 L171.6 202.5 L173.5 202.3 L175.4 202.0 L177.4 201.8 L179.3 201.6 L181.3 201.5 L183.2 201.3 L185.2 201.2 L187.1 201.1 L189.0 201.0 L191.0 200.9 L192.9 200.9 L194.9 200.9 L196.8 200.9 L198.8 200.9 L200.7 201.0 L202.7 201.1 L204.6 201.2 L206.6 201.3 L208.5 201.4 L210.5 201.6 L212.4 201.8 L214.4 202.0 L216.3 202.2 L218.2 202.5 L220.2 202.7 L222.1 203.0 L224.0 203.3 L225.9 203.6 L227.9 203.9 L229.8 204.2 L231.7 204.6 L233.6 204.9 L235.6 205.2 L237.5 205.6 L239.4 206.0 L241.3 206.3 L243.2 206.7 L245.1 207.1 L247.0 207.4 L247.7 207.5"/>
<path d="M140.8 202.8 L142.4 201.7 L144.1 200.6 L145.7 199.6 L147.4 198.5 L149.0 197.5 L150.7 196.5 L152.3 195.5 L154.0 194.5 L155.7 193.5 L157.4 192.6 L159.1 191.6 L160.9 190.7 L162.6 189.8 L164.3 189.0 L166.1 188.2 L167.9 187.4 L169.7 186.6 L171.5 185.9 L173.3 185.2 L175.2 184.6 L177.0 184.0 L178.9 183.5 L180.8 183.0 L182.7 182.6 L184.6 182.2 L186.6 181.9 L188.5 181.7 L190.4 181.5 L192.4 181.4 L194.3 181.3 L196.3 181.3 L198.2 181.4 L200.2 181.5 L202.1 181.7 L204.0 182.0 L206.0 182.3 L207.9 182.7 L209.8 183.1 L211.7 183.6 L213.5 184.2 L215.4 184.8 L217.2 185.4 L219.1 186.1 L220.9 186.8 L222.7 187.6 L224.4 188.4 L226.2 189.2 L227.9 190.1 L229.7 191.0 L231.4 191.9 L233.1 192.9 L234.8 193.8 L236.5 194.8 L238.2 195.8 L239.8 196.8 L241.5 197.8 L243.1 198.9 L244.8 199.9 L246.4 201.0 L248.1 202.0 L249.7 203.1 L249.7 203.1"/>
<path d="M137.2 199.2 L138.3 197.6 L139.4 196.0 L140.6 194.4 L141.7 192.8 L142.8 191.2 L144.0 189.7 L145.2 188.1 L146.4 186.6 L147.6 185.0 L148.8 183.5 L150.1 182.0 L151.3 180.5 L152.6 179.1 L154.0 177.7 L155.3 176.3 L156.7 174.9 L158.1 173.5 L159.5 172.2 L161.0 170.9 L162.5 169.7 L164.0 168.5 L165.6 167.3 L167.2 166.2 L168.8 165.1 L170.5 164.1 L172.2 163.2 L173.9 162.3 L175.7 161.4 L177.5 160.7 L179.3 160.0 L181.2 159.3 L183.0 158.8 L184.9 158.3 L186.8 157.9 L188.7 157.6 L190.7 157.4 L192.6 157.2 L194.6 157.1 L196.5 157.2 L198.5 157.3 L200.4 157.5 L202.3 157.8 L204.3 158.1 L206.2 158.6 L208.0 159.1 L209.9 159.7 L211.7 160.3 L213.5 161.1 L215.3 161.9 L217.0 162.8 L218.8 163.7 L220.4 164.7 L222.1 165.7 L223.7 166.8 L225.3 168.0 L226.8 169.1 L228.3 170.4 L229.8 171.6 L231.3 172.9 L232.7 174.3 L234.1 175.6 L235.5 177.0 L236.8 178.5 L238.1 179.9 L239.4 181.4 L240.6 182.9 L241.9 184.4 L243.1 185.9 L244.3 187.4 L245.5 189.0 L246.7 190.5 L247.8 192.1 L248.9 193.7 L250.1 195.3 L251.2 196.9 L252.3 198.5 L253.0 199.6"/>
<path d="M132.5 197.2 L132.9 195.3 L133.4 193.4 L133.8 191.5 L134.2 189.6 L134.7 187.7 L135.1 185.8 L135.6 184.0 L136.1 182.1 L136.7 180.2 L137.2 178.3 L137.8 176.5 L138.4 174.6 L139.0 172.7 L139.6 170.9 L140.3 169.1 L141.0 167.3 L141.7 165.4 L142.5 163.6 L143.3 161.9 L144.1 160.1 L144.9 158.3 L145.8 156.6 L146.8 154.9 L147.7 153.2 L148.7 151.5 L149.8 149.9 L150.8 148.3 L152.0 146.7 L153.1 145.1 L154.3 143.5 L155.6 142.0 L156.8 140.6 L158.2 139.1 L159.5 137.7 L160.9 136.4 L162.4 135.1 L163.9 133.8 L165.4 132.6 L167.0 131.5 L168.6 130.4 L170.2 129.3 L171.9 128.4 L173.6 127.4 L175.4 126.6 L177.2 125.8 L179.0 125.1 L180.8 124.5 L182.7 123.9 L184.6 123.4 L186.5 123.0 L188.4 122.7 L190.4 122.5 L192.3 122.3 L194.3 122.2 L196.2 122.2 L198.2 122.3 L200.1 122.5 L202.0 122.8 L203.9 123.1 L205.8 123.5 L207.7 124.0 L209.6 124.6 L211.4 125.3 L213.2 126.0 L215.0 126.8 L216.8 127.6 L218.5 128.6 L220.2 129.6 L221.8 130.6 L223.4 131.7 L225.0 132.9 L226.5 134.1 L228.0 135.4 L229.4 136.7 L230.8 138.1 L232.2 139.5 L233.5 140.9 L234.7 142.4 L236.0 143.9 L237.2 145.4 L238.3 147.0 L239.4 148.6 L240.5 150.3 L241.5 151.9 L242.5 153.6 L243.5 155.3 L244.4 157.0 L245.3 158.8 L246.1 160.5 L246.9 162.3 L247.7 164.1 L248.5 165.9 L249.2 167.7 L249.9 169.5 L250.5 171.3 L251.2 173.2 L251.8 175.0 L252.4 176.9 L252.9 178.8 L253.5 180.6 L254.0 182.5 L254.5 184.4 L255.0 186.3 L255.4 188.2 L255.9 190.1 L256.3 192.0 L256.7 193.9 L257.2 195.8 L257.6 197.7 L257.6 197.7"/>
<path d="M127.5 197.2 L127.1 195.3 L126.8 193.4 L126.4 191.5 L126.1 189.6 L125.8 187.6 L125.5 185.7 L125.2 183.8 L124.9 181.9 L124.6 179.9 L124.4 178.0 L124.1 176.1 L123.9 174.1 L123.7 172.2 L123.6 170.2 L123.4 168.3 L123.3 166.4 L123.2 164.4 L123.1 162.5 L123.0 160.5 L122.9 158.6 L122.9 156.6 L122.9 154.7 L122.9 152.7 L123.0 150.8 L123.1 148.8 L123.2 146.9 L123.3 144.9 L123.4 143.0 L123.6 141.0 L123.8 139.1 L124.1 137.2 L124.3 135.2 L124.6 133.3 L125.0 131.4 L125.3 129.5 L125.7 127.6 L126.1 125.6 L126.6 123.8 L127.1 121.9 L127.6 120.0 L128.2 118.1 L128.7 116.3 L129.4 114.4 L130.0 112.6 L130.7 110.7 L131.4 108.9 L132.2 107.1 L133.0 105.4 L133.8 103.6 L134.7 101.8 L135.6 100.1 L136.5 98.4 L137.5 96.7 L138.5 95.1 L139.6 93.4 L140.7 91.8 L141.8 90.2 L142.9 88.6 L144.1 87.1 L145.4 85.6 L146.7 84.1 L148.0 82.7 L149.3 81.3 L150.7 79.9 L152.1 78.6 L153.6 77.2 L155.1 76.0 L156.6 74.8 L158.1 73.6 L159.7 72.5 L161.3 71.4 L163.0 70.3 L164.7 69.3 L166.4 68.4 L168.1 67.5 L169.9 66.7 L171.7 65.9 L173.5 65.2 L175.3 64.5 L177.1 63.9 L179.0 63.3 L180.9 62.8 L182.8 62.4 L184.7 62.0 L186.6 61.7 L188.6 61.5 L190.5 61.3 L192.5 61.2 L194.4 61.1 L196.4 61.2 L198.3 61.2 L200.3 61.4 L202.2 61.6 L204.1 61.8 L206.0 62.2 L208.0 62.6 L209.9 63.0 L211.7 63.5 L213.6 64.1 L215.4 64.8 L217.3 65.4 L219.1 66.2 L220.8 67.0 L222.6 67.9 L224.3 68.8 L226.0 69.7 L227.7 70.7 L229.3 71.8 L230.9 72.9 L232.5 74.1 L234.0 75.2 L235.5 76.5 L237.0 77.8 L238.5 79.1 L239.9 80.4 L241.2 81.8 L242.6 83.2 L243.9 84.7 L245.1 86.2 L246.3 87.7 L247.5 89.3 L248.7 90.8 L249.8 92.4 L250.9 94.1 L251.9 95.7 L252.9 97.4 L253.9 99.1 L254.8 100.8 L255.7 102.5 L256.5 104.3 L257.3 106.1 L258.1 107.9 L258.9 109.7 L259.6 111.5 L260.3 113.3 L260.9 115.1 L261.5 117.0 L262.1 118.9 L262.6 120.7 L263.1 122.6 L263.6 124.5 L264.0 126.4 L264.4 128.3 L264.8 130.2 L265.2 132.1 L265.5 134.1 L265.8 136.0 L266.0 137.9 L266.3 139.9 L266.5 141.8 L266.6 143.8 L266.8 145.7 L266.9 147.6 L267.0 149.6 L267.0 151.5 L267.1 153.5 L267.1 155.4 L267.1 157.4 L267.0 159.3 L267.0 161.3 L266.9 163.2 L266.8 165.2 L266.7 167.1 L266.5 169.1 L266.4 171.0 L266.2 173.0 L266.0 174.9 L265.8 176.8 L265.5 178.8 L265.3 180.7 L265.0 182.6 L264.7 184.6 L264.4 186.5 L264.1 188.4 L263.8 190.3 L263.5 192.3 L263.1 194.2 L262.8 196.1 L262.5 197.4"/>
<path d="M122.8 199.2 L121.7 197.6 L120.6 195.9 L119.6 194.3 L118.5 192.6 L117.5 191.0 L116.5 189.3 L115.4 187.7 L114.4 186.0 L113.4 184.4 L112.4 182.7 L111.4 181.0 L110.4 179.3 L109.4 177.6 L108.5 175.9 L107.5 174.2 L106.6 172.5 L105.6 170.8 L104.7 169.1 L103.8 167.4 L102.9 165.6 L102.0 163.9 L101.2 162.2 L100.3 160.4 L99.5 158.7 L98.6 156.9 L97.8 155.1 L97.0 153.3 L96.2 151.6 L95.4 149.8 L94.7 148.0 L93.9 146.2 L93.2 144.4 L92.5 142.6 L91.8 140.7 L91.1 138.9 L90.4 137.1 L89.7 135.3 L89.1 133.4 L88.5 131.6 L87.8 129.7 L87.2 127.9 L86.7 126.0 L86.1 124.1 L85.5 122.3 L85.0 120.4 L84.5 118.5 L84.0 116.6 L83.5 114.7 L83.0 112.9 L82.6 111.0 L82.1 109.1 L81.7 107.1 L81.3 105.2 L81.0 103.3 L80.6 101.4 L80.2 99.5 L79.9 97.6 L79.6 95.6 L79.3 93.7 L79.0 91.8 L78.8 89.9 L78.6 87.9 L78.3 86.0 L78.1 84.0 L78.0 82.1 L77.8 80.2 L77.7 78.2 L77.5 76.3 L77.4 74.3 L77.3 72.4 L77.3 70.4 L77.2 68.5 L77.2 66.5 L77.2 64.6 L77.2 62.6 L77.3 60.7 L77.3 58.7 L77.4 56.8 L77.5 54.8 L77.6 52.9 L77.8 50.9 L77.9 49.0 L78.1 47.0 L78.3 45.1 L78.5 43.2 L78.8 41.2 L79.0 39.3 L79.3 37.4 L79.6 35.4 L80.0 33.5 L80.3 31.6 L80.7 29.7 L81.1 27.8 L81.5 25.9 L81.9 24.0 L82.4 22.1 L82.9 20.2 L83.4 18.3 L83.9 16.4 L84.5 14.6 L85.1 12.7 L85.7 10.9 L86.3 9.0 L86.9 7.2 L87.6 5.3 L88.3 3.5 L89.0 1.7 L89.0 1.7"/>
<path d="M119.2 202.8 L117.6 201.7 L116.0 200.6 L114.4 199.5 L112.7 198.4 L111.1 197.3 L109.5 196.2 L107.9 195.1 L106.3 193.9 L104.7 192.8 L103.2 191.7 L101.6 190.5 L100.0 189.4 L98.4 188.3 L96.8 187.1 L95.3 186.0 L93.7 184.8 L92.1 183.6 L90.6 182.5 L89.0 181.3 L87.5 180.1 L85.9 178.9 L84.4 177.7 L82.8 176.5 L81.3 175.3 L79.8 174.1 L78.3 172.9 L76.7 171.7 L75.2 170.4 L73.7 169.2 L72.2 168.0 L70.7 166.7 L69.2 165.5 L67.7 164.2 L66.2 162.9 L64.8 161.7 L63.3 160.4 L61.8 159.1 L60.4 157.8 L58.9 156.5 L57.4 155.2 L56.0 153.9 L54.6 152.6 L53.1 151.3 L51.7 150.0 L50.3 148.6 L48.8 147.3 L47.4 146.0 L46.0 144.6 L44.6 143.3 L43.2 141.9 L41.8 140.6 L40.4 139.2 L39.0 137.8 L37.6 136.4 L36.3 135.0 L34.9 133.7 L33.5 132.3 L32.2 130.9 L30.8 129.5 L29.5 128.0 L28.2 126.6 L26.8 125.2 L25.5 123.8 L24.2 122.3 L22.9 120.9 L21.5 119.5 L20.2 118.0 L18.9 116.6 L17.6 115.1 L16.4 113.6 L15.1 112.2 L13.8 110.7 L12.5 109.2 L11.3 107.7 L10.0 106.2 L8.8 104.7 L7.5 103.2 L6.3 101.7 L5.0 100.2 L3.8 98.7 L2.6 97.2 L1.4 95.7 L0.2 94.1 L-1.0 92.6 L-2.2 91.1 L-3.4 89.5 L-4.6 88.0 L-5.8 86.4 L-7.0 84.9 L-8.1 83.3 L-9.3 81.7 L-10.4 80.2 L-11.6 78.6 L-12.7 77.0 L-13.9 75.4 L-15.0 73.8 L-16.1 72.2 L-17.2 70.6 L-18.3 69.0 L-19.5 67.4 L-20.5 65.8 L-21.6 64.2 L-22.7 62.6 L-23.8 60.9 L-24.9 59.3 L-25.9 57.7 L-27.0 56.0 L-28.1 54.4 L-29.1 52.8 L-30.1 51.1 L-31.2 49.5 L-32.2 47.8 L-33.2 46.1 L-34.2 44.5 L-35.2 42.8 L-36.2 41.1 L-37.2 39.5 L-38.2 37.8 L-39.2 36.1 L-39.2 36.1"/>
<path d="M117.2 207.5 L115.3 207.1 L113.4 206.7 L111.5 206.3 L109.6 205.9 L107.7 205.5 L105.8 205.1 L103.9 204.7 L102.0 204.4 L100.1 204.0 L98.1 203.6 L96.2 203.2 L94.3 202.8 L92.4 202.4 L90.5 201.9 L88.6 201.5 L86.7 201.1 L84.8 200.7 L82.9 200.3 L81.0 199.9 L79.1 199.5 L77.2 199.0 L75.3 198.6 L73.4 198.2 L71.5 197.8 L69.6 197.3 L67.7 196.9 L65.8 196.5 L63.9 196.0 L62.0 195.6 L60.1 195.2 L58.2 194.7 L56.3 194.3 L54.4 193.8 L52.5 193.4 L50.6 192.9 L48.7 192.5 L46.8 192.0 L44.9 191.5 L43.0 191.1 L41.1 190.6 L39.2 190.2 L37.3 189.7 L35.4 189.2 L33.5 188.7 L31.6 188.3 L29.7 187.8 L27.9 187.3 L26.0 186.8 L24.1 186.3 L22.2 185.9 L20.3 185.4 L18.4 184.9 L16.5 184.4 L14.6 183.9 L12.8 183.4 L10.9 182.9 L9.0 182.4 L7.1 181.9 L5.2 181.4 L3.3 180.9 L1.5 180.4 L-0.4 179.9 L-2.3 179.3 L-4.2 178.8 L-6.1 178.3 L-7.9 177.8 L-9.8 177.3 L-11.7 176.7 L-13.6 176.2 L-15.5 175.7 L-17.3 175.1 L-19.2 174.6 L-21.1 174.1 L-23.0 173.5 L-24.8 173.0 L-26.7 172.5 L-28.6 171.9 L-30.5 171.4 L-32.3 170.8 L-34.2 170.3 L-36.1 169.7 L-37.9 169.2 L-39.2 168.8"/>
<path d="M117.2 212.5 L115.3 212.9 L113.4 213.3 L111.5 213.7 L109.6 214.1 L107.7 214.5 L105.8 214.9 L103.9 215.3 L102.0 215.6 L100.1 216.0 L98.1 216.4 L96.2 216.8 L94.3 217.2 L92.4 217.6 L90.5 218.1 L88.6 218.5 L86.7 218.9 L84.8 219.3 L82.9 219.7 L81.0 220.1 L79.1 220.5 L77.2 221.0 L75.3 221.4 L73.4 221.8 L71.5 222.2 L69.6 222.7 L67.7 223.1 L65.8 223.5 L63.9 224.0 L62.0 224.4 L60.1 224.8 L58.2 225.3 L56.3 225.7 L54.4 226.2 L52.5 226.6 L50.6 227.1 L48.7 227.5 L46.8 228.0 L44.9 228.5 L43.0 228.9 L41.1 229.4 L39.2 229.8 L37.3 230.3 L35.4 230.8 L33.5 231.3 L31.6 231.7 L29.7 232.2 L27.9 232.7 L26.0 233.2 L24.1 233.7 L22.2 234.1 L20.3 234.6 L18.4 235.1 L16.5 235.6 L14.6 236.1 L12.8 236.6 L10.9 237.1 L9.0 237.6 L7.1 238.1 L5.2 238.6 L3.3 239.1 L1.5 239.6 L-0.4 240.1 L-2.3 240.7 L-4.2 241.2 L-6.1 241.7 L-7.9 242.2 L-9.8 242.7 L-11.7 243.3 L-13.6 243.8 L-15.5 244.3 L-17.3 244.9 L-19.2 245.4 L-21.1 245.9 L-23.0 246.5 L-24.8 247.0 L-26.7 247.5 L-28.6 248.1 L-30.5 248.6 L-32.3 249.2 L-34.2 249.7 L-36.1 250.3 L-37.9 250.8 L-39.2 251.2"/>
<path d="M119.2 217.2 L117.6 218.3 L116.0 219.4 L114.4 220.5 L112.7 221.6 L111.1 222.7 L109.5 223.8 L107.9 224.9 L106.3 226.1 L104.7 227.2 L103.2 228.3 L101.6 229.5 L100.0 230.6 L98.4 231.7 L96.8 232.9 L95.3 234.0 L93.7 235.2 L92.1 236.4 L90.6 237.5 L89.0 238.7 L87.5 239.9 L85.9 241.1 L84.4 242.3 L82.8 243.5 L81.3 244.7 L79.8 245.9 L78.3 247.1 L76.7 248.3 L75.2 249.6 L73.7 250.8 L72.2 252.0 L70.7 253.3 L69.2 254.5 L67.7 255.8 L66.2 257.1 L64.8 258.3 L63.3 259.6 L61.8 260.9 L60.4 262.2 L58.9 263.5 L57.4 264.8 L56.0 266.1 L54.6 267.4 L53.1 268.7 L51.7 270.0 L50.3 271.4 L48.8 272.7 L47.4 274.0 L46.0 275.4 L44.6 276.7 L43.2 278.1 L41.8 279.4 L40.4 280.8 L39.0 282.2 L37.6 283.6 L36.3 285.0 L34.9 286.3 L33.5 287.7 L32.2 289.1 L30.8 290.5 L29.5 292.0 L28.2 293.4 L26.8 294.8 L25.5 296.2 L24.2 297.7 L22.9 299.1 L21.5 300.5 L20.2 302.0 L18.9 303.4 L17.6 304.9 L16.4 306.4 L15.1 307.8 L13.8 309.3 L12.5 310.8 L11.3 312.3 L10.0 313.8 L8.8 315.3 L7.5 316.8 L6.3 318.3 L5.0 319.8 L3.8 321.3 L2.6 322.8 L1.4 324.3 L0.2 325.9 L-1.0 327.4 L-2.2 328.9 L-3.4 330.5 L-4.6 332.0 L-5.8 333.6 L-7.0 335.1 L-8.1 336.7 L-9.3 338.3 L-10.4 339.8 L-11.6 341.4 L-12.7 343.0 L-13.9 344.6 L-15.0 346.2 L-16.1 347.8 L-17.2 349.4 L-18.3 351.0 L-19.5 352.6 L-20.5 354.2 L-21.6 355.8 L-22.7 357.4 L-23.8 359.1 L-24.9 360.7 L-25.9 362.3 L-27.0 364.0 L-28.1 365.6 L-29.1 367.2 L-30.1 368.9 L-31.2 370.5 L-32.2 372.2 L-33.2 373.9 L-34.2 375.5 L-35.2 377.2 L-36.2 378.9 L-37.2 380.5 L-38.2 382.2 L-39.2 383.9 L-39.2 383.9"/>
<path d="M122.8 220.8 L121.7 222.4 L120.6 224.1 L119.6 225.7 L118.5 227.4 L117.5 229.0 L116.5 230.7 L115.4 232.3 L114.4 234.0 L113.4 235.6 L112.4 237.3 L111.4 239.0 L110.4 240.7 L109.4 242.4 L108.5 244.1 L107.5 245.8 L106.6 247.5 L105.6 249.2 L104.7 250.9 L103.8 252.6 L102.9 254.4 L102.0 256.1 L101.2 257.8 L100.3 259.6 L99.5 261.3 L98.6 263.1 L97.8 264.9 L97.0 266.7 L96.2 268.4 L95.4 270.2 L94.7 272.0 L93.9 273.8 L93.2 275.6 L92.5 277.4 L91.8 279.3 L91.1 281.1 L90.4 282.9 L89.7 284.7 L89.1 286.6 L88.5 288.4 L87.8 290.3 L87.2 292.1 L86.7 294.0 L86.1 295.9 L85.5 297.7 L85.0 299.6 L84.5 301.5 L84.0 303.4 L83.5 305.3 L83.0 307.1 L82.6 309.0 L82.1 310.9 L81.7 312.9 L81.3 314.8 L81.0 316.7 L80.6 318.6 L80.2 320.5 L79.9 322.4 L79.6 324.4 L79.3 326.3 L79.0 328.2 L78.8 330.1 L78.6 332.1 L78.3 334.0 L78.1 336.0 L78.0 337.9 L77.8 339.8 L77.7 341.8 L77.5 343.7 L77.4 345.7 L77.3 347.6 L77.3 349.6 L77.2 351.5 L77.2 353.5 L77.2 355.4 L77.2 357.4 L77.3 359.3 L77.3 361.3 L77.4 363.2 L77.5 365.2 L77.6 367.1 L77.8 369.1 L77.9 371.0 L78.1 373.0 L78.3 374.9 L78.5 376.8 L78.8 378.8 L79.0 380.7 L79.3 382.6 L79.6 384.6 L80.0 386.5 L80.3 388.4 L80.7 390.3 L81.1 392.2 L81.5 394.1 L81.9 396.0 L82.4 397.9 L82.9 399.8 L83.4 401.7 L83.9 403.6 L84.5 405.4 L85.1 407.3 L85.7 409.1 L86.3 411.0 L86.9 412.8 L87.6 414.7 L88.3 416.5 L89.0 418.3 L89.0 418.3"/>
<path d="M127.5 222.8 L127.1 224.7 L126.8 226.6 L126.4 228.5 L126.1 230.4 L125.8 232.4 L125.5 234.3 L125.2 236.2 L124.9 238.1 L124.6 240.1 L124.4 242.0 L124.1 243.9 L123.9 245.9 L123.7 247.8 L123.6 249.8 L123.4 251.7 L123.3 253.6 L123.2 255.6 L123.1 257.5 L123.0 259.5 L122.9 261.4 L122.9 263.4 L122.9 265.3 L122.9 267.3 L123.0 269.2 L123.1 271.2 L123.2 273.1 L123.3 275.1 L123.4 277.0 L123.6 279.0 L123.8 280.9 L124.1 282.8 L124.3 284.8 L124.6 286.7 L125.0 288.6 L125.3 290.5 L125.7 292.4 L126.1 294.4 L126.6 296.2 L127.1 298.1 L127.6 300.0 L128.2 301.9 L128.7 303.7 L129.4 305.6 L130.0 307.4 L130.7 309.3 L131.4 311.1 L132.2 312.9 L133.0 314.6 L133.8 316.4 L134.7 318.2 L135.6 319.9 L136.5 321.6 L137.5 323.3 L138.5 324.9 L139.6 326.6 L140.7 328.2 L141.8 329.8 L142.9 331.4 L144.1 332.9 L145.4 334.4 L146.7 335.9 L148.0 337.3 L149.3 338.7 L150.7 340.1 L152.1 341.4 L153.6 342.8 L155.1 344.0 L156.6 345.2 L158.1 346.4 L159.7 347.5 L161.3 348.6 L163.0 349.7 L164.7 350.7 L166.4 351.6 L168.1 352.5 L169.9 353.3 L171.7 354.1 L173.5 354.8 L175.3 355.5 L177.1 356.1 L179.0 356.7 L180.9 357.2 L182.8 357.6 L184.7 358.0 L186.6 358.3 L188.6 358.5 L190.5 358.7 L192.5 358.8 L194.4 358.9 L196.4 358.8 L198.3 358.8 L200.3 358.6 L202.2 358.4 L204.1 358.2 L206.0 357.8 L208.0 357.4 L209.9 357.0 L211.7 356.5 L213.6 355.9 L215.4 355.2 L217.3 354.6 L219.1 353.8 L220.8 353.0 L222.6 352.1 L224.3 351.2 L226.0 350.3 L227.7 349.3 L229.3 348.2 L230.9 347.1 L232.5 345.9 L234.0 344.8 L235.5 343.5 L237.0 342.2 L238.5 340.9 L239.9 339.6 L241.2 338.2 L242.6 336.8 L243.9 335.3 L245.1 333.8 L246.3 332.3 L247.5 330.7 L248.7 329.2 L249.8 327.6 L250.9 325.9 L251.9 324.3 L252.9 322.6 L253.9 320.9 L254.8 319.2 L255.7 317.5 L256.5 315.7 L257.3 313.9 L258.1 312.1 L258.9 310.3 L259.6 308.5 L260.3 306.7 L260.9 304.9 L261.5 303.0 L262.1 301.1 L262.6 299.3 L263.1 297.4 L263.6 295.5 L264.0 293.6 L264.4 291.7 L264.8 289.8 L265.2 287.9 L265.5 285.9 L265.8 284.0 L266.0 282.1 L266.3 280.1 L266.5 278.2 L266.6 276.2 L266.8 274.3 L266.9 272.4 L267.0 270.4 L267.0 268.5 L267.1 266.5 L267.1 264.6 L267.1 262.6 L267.0 260.7 L267.0 258.7 L266.9 256.8 L266.8 254.8 L266.7 252.9 L266.5 250.9 L266.4 249.0 L266.2 247.0 L266.0 245.1 L265.8 243.2 L265.5 241.2 L265.3 239.3 L265.0 237.4 L264.7 235.4 L264.4 233.5 L264.1 231.6 L263.8 229.7 L263.5 227.7 L263.1 225.8 L262.8 223.9 L262.5 222.6"/>
<path d="M132.5 222.8 L132.9 224.7 L133.4 226.6 L133.8 228.5 L134.2 230.4 L134.7 232.3 L135.1 234.2 L135.6 236.0 L136.1 237.9 L136.7 239.8 L137.2 241.7 L137.8 243.5 L138.4 245.4 L139.0 247.3 L139.6 249.1 L140.3 250.9 L141.0 252.7 L141.7 254.6 L142.5 256.4 L143.3 258.1 L144.1 259.9 L144.9 261.7 L145.8 263.4 L146.8 265.1 L147.7 266.8 L148.7 268.5 L149.8 270.1 L150.8 271.7 L152.0 273.3 L153.1 274.9 L154.3 276.5 L155.6 278.0 L156.8 279.4 L158.2 280.9 L159.5 282.3 L160.9 283.6 L162.4 284.9 L163.9 286.2 L165.4 287.4 L167.0 288.5 L168.6 289.6 L170.2 290.7 L171.9 291.6 L173.6 292.6 L175.4 293.4 L177.2 294.2 L179.0 294.9 L180.8 295.5 L182.7 296.1 L184.6 296.6 L186.5 297.0 L188.4 297.3 L190.4 297.5 L192.3 297.7 L194.3 297.8 L196.2 297.8 L198.2 297.7 L200.1 297.5 L202.0 297.2 L203.9 296.9 L205.8 296.5 L207.7 296.0 L209.6 295.4 L211.4 294.7 L213.2 294.0 L215.0 293.2 L216.8 292.4 L218.5 291.4 L220.2 290.4 L221.8 289.4 L223.4 288.3 L225.0 287.1 L226.5 285.9 L228.0 284.6 L229.4 283.3 L230.8 281.9 L232.2 280.5 L233.5 279.1 L234.7 277.6 L236.0 276.1 L237.2 274.6 L238.3 273.0 L239.4 271.4 L240.5 269.7 L241.5 268.1 L242.5 266.4 L243.5 264.7 L244.4 263.0 L245.3 261.2 L246.1 259.5 L246.9 257.7 L247.7 255.9 L248.5 254.1 L249.2 252.3 L249.9 250.5 L250.5 248.7 L251.2 246.8 L251.8 245.0 L252.4 243.1 L252.9 241.2 L253.5 239.4 L254.0 237.5 L254.5 235.6 L255.0 233.7 L255.4 231.8 L255.9 229.9 L256.3 228.0 L256.7 226.1 L257.2 224.2 L257.6 222.3 L257.6 222.3"/>
<path d="M137.2 220.8 L138.3 222.4 L139.4 224.0 L140.6 225.6 L141.7 227.2 L142.8 228.8 L144.0 230.3 L145.2 231.9 L146.4 233.4 L147.6 235.0 L148.8 236.5 L150.1 238.0 L151.3 239.5 L152.6 240.9 L154.0 242.3 L155.3 243.7 L156.7 245.1 L158.1 246.5 L159.5 247.8 L161.0 249.1 L162.5 250.3 L164.0 251.5 L165.6 252.7 L167.2 253.8 L168.8 254.9 L170.5 255.9 L172.2 256.8 L173.9 257.7 L175.7 258.6 L177.5 259.3 L179.3 260.0 L181.2 260.7 L183.0 261.2 L184.9 261.7 L186.8 262.1 L188.7 262.4 L190.7 262.6 L192.6 262.8 L194.6 262.9 L196.5 262.8 L198.5 262.7 L200.4 262.5 L202.3 262.2 L204.3 261.9 L206.2 261.4 L208.0 260.9 L209.9 260.3 L211.7 259.7 L213.5 258.9 L215.3 258.1 L217.0 257.2 L218.8 256.3 L220.4 255.3 L222.1 254.3 L223.7 253.2 L225.3 252.0 L226.8 250.9 L228.3 249.6 L229.8 248.4 L231.3 247.1 L232.7 245.7 L234.1 244.4 L235.5 243.0 L236.8 241.5 L238.1 240.1 L239.4 238.6 L240.6 237.1 L241.9 235.6 L243.1 234.1 L244.3 232.6 L245.5 231.0 L246.7 229.5 L247.8 227.9 L248.9 226.3 L250.1 224.7 L251.2 223.1 L252.3 221.5 L253.0 220.4"/>
<path d="M140.8 217.2 L142.4 218.3 L144.1 219.4 L145.7 220.4 L147.4 221.5 L149.0 222.5 L150.7 223.5 L152.3 224.5 L154.0 225.5 L155.7 226.5 L157.4 227.4 L159.1 228.4 L160.9 229.3 L162.6 230.2 L164.3 231.0 L166.1 231.8 L167.9 232.6 L169.7 233.4 L171.5 234.1 L173.3 234.8 L175.2 235.4 L177.0 236.0 L178.9 236.5 L180.8 237.0 L182.7 237.4 L184.6 237.8 L186.6 238.1 L188.5 238.3 L190.4 238.5 L192.4 238.6 L194.3 238.7 L196.3 238.7 L198.2 238.6 L200.2 238.5 L202.1 238.3 L204.0 238.0 L206.0 237.7 L207.9 237.3 L209.8 236.9 L211.7 236.4 L213.5 235.8 L215.4 235.2 L217.2 234.6 L219.1 233.9 L220.9 233.2 L222.7 232.4 L224.4 231.6 L226.2 230.8 L227.9 229.9 L229.7 229.0 L231.4 228.1 L233.1 227.1 L234.8 226.2 L236.5 225.2 L238.2 224.2 L239.8 223.2 L241.5 222.2 L243.1 221.1 L244.8 220.1 L246.4 219.0 L248.1 218.0 L249.7 216.9 L249.7 216.9"/>
<path d="M142.8 212.5 L144.7 212.9 L146.6 213.3 L148.5 213.6 L150.4 214.0 L152.3 214.4 L154.2 214.7 L156.2 215.1 L158.1 215.4 L160.0 215.7 L161.9 216.1 L163.9 216.4 L165.8 216.7 L167.7 217.0 L169.6 217.2 L171.6 217.5 L173.5 217.7 L175.4 218.0 L177.4 218.2 L179.3 218.4 L181.3 218.5 L183.2 218.7 L185.2 218.8 L187.1 218.9 L189.0 219.0 L191.0 219.1 L192.9 219.1 L194.9 219.1 L196.8 219.1 L198.8 219.1 L200.7 219.0 L202.7 218.9 L204.6 218.8 L206.6 218.7 L208.5 218.6 L210.5 218.4 L212.4 218.2 L214.4 218.0 L216.3 217.8 L218.2 217.5 L220.2 217.3 L222.1 217.0 L224.0 216.7 L225.9 216.4 L227.9 216.1 L229.8 215.8 L231.7 215.4 L233.6 215.1 L235.6 214.8 L237.5 214.4 L239.4 214.0 L241.3 213.7 L243.2 213.3 L245.1 212.9 L247.0 212.6 L247.7 212.5"/>
<path d="M301.0 1.7 L301.7 3.5 L302.4 5.3 L303.1 7.2 L303.7 9.0 L304.3 10.9 L304.9 12.7 L305.5 14.6 L306.1 16.4 L306.6 18.3 L307.1 20.2 L307.6 22.1 L308.1 24.0 L308.5 25.9 L308.9 27.8 L309.3 29.7 L309.7 31.6 L310.0 33.5 L310.4 35.4 L310.7 37.4 L311.0 39.3 L311.2 41.2 L311.5 43.2 L311.7 45.1 L311.9 47.0 L312.1 49.0 L312.2 50.9 L312.4 52.9 L312.5 54.8 L312.6 56.8 L312.7 58.7 L312.7 60.7 L312.8 62.6 L312.8 64.6 L312.8 66.5 L312.8 68.5 L312.7 70.4 L312.7 72.4 L312.6 74.3 L312.5 76.3 L312.3 78.2 L312.2 80.2 L312.0 82.1 L311.9 84.0 L311.7 86.0 L311.4 87.9 L311.2 89.9 L311.0 91.8 L310.7 93.7 L310.4 95.6 L310.1 97.6 L309.8 99.5 L309.4 101.4 L309.0 103.3 L308.7 105.2 L308.3 107.1 L307.9 109.1 L307.4 111.0 L307.0 112.9 L306.5 114.7 L306.0 116.6 L305.5 118.5 L305.0 120.4 L304.5 122.3 L303.9 124.1 L303.3 126.0 L302.8 127.9 L302.2 129.7 L301.5 131.6 L300.9 133.4 L300.3 135.3 L299.6 137.1 L298.9 138.9 L298.2 140.7 L297.5 142.6 L296.8 144.4 L296.1 146.2 L295.3 148.0 L294.6 149.8 L293.8 151.6 L293.0 153.3 L292.2 155.1 L291.4 156.9 L290.5 158.7 L289.7 160.4 L288.8 162.2 L288.0 163.9 L287.1 165.6 L286.2 167.4 L285.3 169.1 L284.4 170.8 L283.4 172.5 L282.5 174.2 L281.5 175.9 L280.6 177.6 L279.6 179.3 L278.6 181.0 L277.6 182.7 L276.6 184.4 L275.6 186.0 L274.6 187.7 L273.5 189.3 L272.5 191.0 L271.5 192.6 L270.4 194.3 L269.4 195.9 L268.3 197.6 L267.2 199.2 L267.2 199.2"/>
<path d="M429.2 36.1 L428.2 37.8 L427.2 39.5 L426.2 41.1 L425.2 42.8 L424.2 44.5 L423.2 46.1 L422.2 47.8 L421.2 49.5 L420.1 51.1 L419.1 52.8 L418.1 54.4 L417.0 56.0 L415.9 57.7 L414.9 59.3 L413.8 60.9 L412.7 62.6 L411.6 64.2 L410.5 65.8 L409.5 67.4 L408.3 69.0 L407.2 70.6 L406.1 72.2 L405.0 73.8 L403.9 75.4 L402.7 77.0 L401.6 78.6 L400.4 80.2 L399.3 81.7 L398.1 83.3 L397.0 84.9 L395.8 86.4 L394.6 88.0 L393.4 89.5 L392.2 91.1 L391.0 92.6 L389.8 94.1 L388.6 95.7 L387.4 97.2 L386.2 98.7 L385.0 100.2 L383.7 101.7 L382.5 103.2 L381.2 104.7 L380.0 106.2 L378.7 107.7 L377.5 109.2 L376.2 110.7 L374.9 112.2 L373.6 113.6 L372.4 115.1 L371.1 116.6 L369.8 118.0 L368.5 119.5 L367.1 120.9 L365.8 122.3 L364.5 123.8 L363.2 125.2 L361.8 126.6 L360.5 128.0 L359.2 129.5 L357.8 130.9 L356.5 132.3 L355.1 133.7 L353.7 135.0 L352.4 136.4 L351.0 137.8 L349.6 139.2 L348.2 140.6 L346.8 141.9 L345.4 143.3 L344.0 144.6 L342.6 146.0 L341.2 147.3 L339.7 148.6 L338.3 150.0 L336.9 151.3 L335.4 152.6 L334.0 153.9 L332.6 155.2 L331.1 156.5 L329.6 157.8 L328.2 159.1 L326.7 160.4 L325.2 161.7 L323.8 162.9 L322.3 164.2 L320.8 165.5 L319.3 166.7 L317.8 168.0 L316.3 169.2 L314.8 170.4 L313.3 171.7 L311.7 172.9 L310.2 174.1 L308.7 175.3 L307.2 176.5 L305.6 177.7 L304.1 178.9 L302.5 180.1 L301.0 181.3 L299.4 182.5 L297.9 183.6 L296.3 184.8 L294.7 186.0 L293.2 187.1 L291.6 188.3 L290.0 189.4 L288.4 190.5 L286.8 191.7 L285.3 192.8 L283.7 193.9 L282.1 195.1 L280.5 196.2 L278.9 197.3 L277.3 198.4 L275.6 199.5 L274.0 200.6 L272.4 201.7 L270.8 202.8 L270.8 202.8"/>
<path d="M429.2 168.8 L427.3 169.3 L425.4 169.9 L423.6 170.4 L421.7 171.0 L419.8 171.5 L418.0 172.1 L416.1 172.6 L414.2 173.2 L412.3 173.7 L410.5 174.3 L408.6 174.8 L406.7 175.3 L404.8 175.9 L403.0 176.4 L401.1 176.9 L399.2 177.4 L397.3 178.0 L395.4 178.5 L393.6 179.0 L391.7 179.5 L389.8 180.0 L387.9 180.5 L386.0 181.0 L384.2 181.6 L382.3 182.1 L380.4 182.6 L378.5 183.1 L376.6 183.6 L374.7 184.1 L372.8 184.5 L371.0 185.0 L369.1 185.5 L367.2 186.0 L365.3 186.5 L363.4 187.0 L361.5 187.5 L359.6 187.9 L357.7 188.4 L355.8 188.9 L354.0 189.4 L352.1 189.8 L350.2 190.3 L348.3 190.8 L346.4 191.2 L344.5 191.7 L342.6 192.2 L340.7 192.6 L338.8 193.1 L336.9 193.5 L335.0 194.0 L333.1 194.4 L331.2 194.9 L329.3 195.3 L327.4 195.7 L325.5 196.2 L323.6 196.6 L321.7 197.0 L319.8 197.5 L317.9 197.9 L316.0 198.3 L314.1 198.8 L312.2 199.2 L310.3 199.6 L308.4 200.0 L306.5 200.4 L304.6 200.9 L302.7 201.3 L300.8 201.7 L298.9 202.1 L296.9 202.5 L295.0 202.9 L293.1 203.3 L291.2 203.7 L289.3 204.1 L287.4 204.5 L285.5 204.9 L283.6 205.3 L281.7 205.7 L279.8 206.0 L277.8 206.4 L275.9 206.8 L274.0 207.2 L272.8 207.5"/>
<path d="M429.2 251.2 L427.3 250.7 L425.4 250.1 L423.6 249.6 L421.7 249.0 L419.8 248.5 L418.0 247.9 L416.1 247.4 L414.2 246.8 L412.3 246.3 L410.5 245.7 L408.6 245.2 L406.7 244.7 L404.8 244.1 L403.0 243.6 L401.1 243.1 L399.2 242.6 L397.3 242.0 L395.4 241.5 L393.6 241.0 L391.7 240.5 L389.8 240.0 L387.9 239.5 L386.0 239.0 L384.2 238.4 L382.3 237.9 L380.4 237.4 L378.5 236.9 L376.6 236.4 L374.7 235.9 L372.8 235.5 L371.0 235.0 L369.1 234.5 L367.2 234.0 L365.3 233.5 L363.4 233.0 L361.5 232.5 L359.6 232.1 L357.7 231.6 L355.8 231.1 L354.0 230.6 L352.1 230.2 L350.2 229.7 L348.3 229.2 L346.4 228.8 L344.5 228.3 L342.6 227.8 L340.7 227.4 L338.8 226.9 L336.9 226.5 L335.0 226.0 L333.1 225.6 L331.2 225.1 L329.3 224.7 L327.4 224.3 L325.5 223.8 L323.6 223.4 L321.7 223.0 L319.8 222.5 L317.9 222.1 L316.0 221.7 L314.1 221.2 L312.2 220.8 L310.3 220.4 L308.4 220.0 L306.5 219.6 L304.6 219.1 L302.7 218.7 L300.8 218.3 L298.9 217.9 L296.9 217.5 L295.0 217.1 L293.1 216.7 L291.2 216.3 L289.3 215.9 L287.4 215.5 L285.5 215.1 L283.6 214.7 L281.7 214.3 L279.8 214.0 L277.8 213.6 L275.9 213.2 L274.0 212.8 L272.8 212.5"/>
<path d="M429.2 383.9 L428.2 382.2 L427.2 380.5 L426.2 378.9 L425.2 377.2 L424.2 375.5 L423.2 373.9 L422.2 372.2 L421.2 370.5 L420.1 368.9 L419.1 367.2 L418.1 365.6 L417.0 364.0 L415.9 362.3 L414.9 360.7 L413.8 359.1 L412.7 357.4 L411.6 355.8 L410.5 354.2 L409.5 352.6 L408.3 351.0 L407.2 349.4 L406.1 347.8 L405.0 346.2 L403.9 344.6 L402.7 343.0 L401.6 341.4 L400.4 339.8 L399.3 338.3 L398.1 336.7 L397.0 335.1 L395.8 333.6 L394.6 332.0 L393.4 330.5 L392.2 328.9 L391.0 327.4 L389.8 325.9 L388.6 324.3 L387.4 322.8 L386.2 321.3 L385.0 319.8 L383.7 318.3 L382.5 316.8 L381.2 315.3 L380.0 313.8 L378.7 312.3 L377.5 310.8 L376.2 309.3 L374.9 307.8 L373.6 306.4 L372.4 304.9 L371.1 303.4 L369.8 302.0 L368.5 300.5 L367.1 299.1 L365.8 297.7 L364.5 296.2 L363.2 294.8 L361.8 293.4 L360.5 292.0 L359.2 290.5 L357.8 289.1 L356.5 287.7 L355.1 286.3 L353.7 285.0 L352.4 283.6 L351.0 282.2 L349.6 280.8 L348.2 279.4 L346.8 278.1 L345.4 276.7 L344.0 275.4 L342.6 274.0 L341.2 272.7 L339.7 271.4 L338.3 270.0 L336.9 268.7 L335.4 267.4 L334.0 266.1 L332.6 264.8 L331.1 263.5 L329.6 262.2 L328.2 260.9 L326.7 259.6 L325.2 258.3 L323.8 257.1 L322.3 255.8 L320.8 254.5 L319.3 253.3 L317.8 252.0 L316.3 250.8 L314.8 249.6 L313.3 248.3 L311.7 247.1 L310.2 245.9 L308.7 244.7 L307.2 243.5 L305.6 242.3 L304.1 241.1 L302.5 239.9 L301.0 238.7 L299.4 237.5 L297.9 236.4 L296.3 235.2 L294.7 234.0 L293.2 232.9 L291.6 231.7 L290.0 230.6 L288.4 229.5 L286.8 228.3 L285.3 227.2 L283.7 226.1 L282.1 224.9 L280.5 223.8 L278.9 222.7 L277.3 221.6 L275.6 220.5 L274.0 219.4 L272.4 218.3 L270.8 217.2 L270.8 217.2"/>
<path d="M301.0 418.3 L301.7 416.5 L302.4 414.7 L303.1 412.8 L303.7 411.0 L304.3 409.1 L304.9 407.3 L305.5 405.4 L306.1 403.6 L306.6 401.7 L307.1 399.8 L307.6 397.9 L308.1 396.0 L308.5 394.1 L308.9 392.2 L309.3 390.3 L309.7 388.4 L310.0 386.5 L310.4 384.6 L310.7 382.6 L311.0 380.7 L311.2 378.8 L311.5 376.8 L311.7 374.9 L311.9 373.0 L312.1 371.0 L312.2 369.1 L312.4 367.1 L312.5 365.2 L312.6 363.2 L312.7 361.3 L312.7 359.3 L312.8 357.4 L312.8 355.4 L312.8 353.5 L312.8 351.5 L312.7 349.6 L312.7 347.6 L312.6 345.7 L312.5 343.7 L312.3 341.8 L312.2 339.8 L312.0 337.9 L311.9 336.0 L311.7 334.0 L311.4 332.1 L311.2 330.1 L311.0 328.2 L310.7 326.3 L310.4 324.4 L310.1 322.4 L309.8 320.5 L309.4 318.6 L309.0 316.7 L308.7 314.8 L308.3 312.9 L307.9 310.9 L307.4 309.0 L307.0 307.1 L306.5 305.3 L306.0 303.4 L305.5 301.5 L305.0 299.6 L304.5 297.7 L303.9 295.9 L303.3 294.0 L302.8 292.1 L302.2 290.3 L301.5 288.4 L300.9 286.6 L300.3 284.7 L299.6 282.9 L298.9 281.1 L298.2 279.3 L297.5 277.4 L296.8 275.6 L296.1 273.8 L295.3 272.0 L294.6 270.2 L293.8 268.4 L293.0 266.7 L292.2 264.9 L291.4 263.1 L290.5 261.3 L289.7 259.6 L288.8 257.8 L288.0 256.1 L287.1 254.4 L286.2 252.6 L285.3 250.9 L284.4 249.2 L283.4 247.5 L282.5 245.8 L281.5 244.1 L280.6 242.4 L279.6 240.7 L278.6 239.0 L277.6 237.3 L276.6 235.6 L275.6 234.0 L274.6 232.3 L273.5 230.7 L272.5 229.0 L271.5 227.4 L270.4 225.7 L269.4 224.1 L268.3 222.4 L267.2 220.8 L267.2 220.8"/>
</g>
<polygon points="202.0,201.0 193.2,196.2 192.9,205.2" fill="#475569"/>
<polygon points="195.6,181.3 186.6,176.8 186.6,185.8" fill="#475569"/>
<polygon points="180.5,159.5 170.6,158.2 173.5,166.7" fill="#475569"/>
<polygon points="155.1,142.5 146.0,146.7 152.9,152.4" fill="#475569"/>
<polygon points="124.0,137.8 118.4,146.2 127.4,147.3" fill="#475569"/>
<polygon points="94.2,146.8 93.5,156.8 101.8,153.3" fill="#475569"/>
<polygon points="71.2,167.1 75.3,176.3 81.0,169.4" fill="#475569"/>
<polygon points="58.8,194.9 66.5,201.3 68.6,192.5" fill="#475569"/>
<polygon points="58.8,225.1 68.6,227.5 66.5,218.7" fill="#475569"/>
<polygon points="71.2,252.9 81.0,250.6 75.3,243.7" fill="#475569"/>
<polygon points="94.2,273.2 101.8,266.7 93.5,263.2" fill="#475569"/>
<polygon points="124.0,282.2 127.4,272.7 118.4,273.8" fill="#475569"/>
<polygon points="155.1,277.5 152.9,267.6 146.0,273.3" fill="#475569"/>
<polygon points="180.5,260.5 173.5,253.3 170.6,261.8" fill="#475569"/>
<polygon points="195.6,238.7 186.6,234.2 186.6,243.2" fill="#475569"/>
<polygon points="202.0,219.0 192.9,214.8 193.2,223.8" fill="#475569"/>
<polygon points="295.1,148.6 302.7,142.0 294.4,138.5" fill="#475569"/>
<polygon points="317.3,168.4 327.1,166.1 321.3,159.2" fill="#475569"/>
<polygon points="329.3,195.3 339.1,197.6 337.0,188.9" fill="#475569"/>
<polygon points="329.3,224.7 337.0,231.1 339.1,222.4" fill="#475569"/>
<polygon points="317.3,251.6 321.3,260.8 327.1,253.9" fill="#475569"/>
<polygon points="295.1,271.4 294.4,281.5 302.7,278.0" fill="#475569"/>
<circle cx="130.0" cy="210.0" r="14" fill="#fecaca" stroke="#dc2626" stroke-width="2"/>
<text x="130.0" y="216.0" font-size="18" fill="#1f2937" text-anchor="middle" font-weight="bold">+</text>
<circle cx="260.0" cy="210.0" r="14" fill="#bfdbfe" stroke="#2563eb" stroke-width="2"/>
<text x="260.0" y="216.0" font-size="18" fill="#1f2937" text-anchor="middle" font-weight="bold">−</text>
<text x="195" y="372" font-size="13" fill="#1f2937" text-anchor="middle">Lines crowd where |E| is large; far away E falls as 1/r³</text>
<rect x="390" y="50" width="350" height="300" rx="10" fill="#f0fdf4" stroke="#bbf7d0"/>
<text x="565" y="72" font-size="14" fill="#1f2937" text-anchor="middle">(b) Parallel plates: uniform E between them</text>
<rect x="450" y="108" width="240" height="12" rx="3" fill="#fecaca" stroke="#dc2626" stroke-width="1.5"/>
<text x="570" y="101" font-size="15" fill="#b91c1c" text-anchor="middle" letter-spacing="6">+ + + + + + + + +</text>
<rect x="450" y="300" width="240" height="12" rx="3" fill="#bfdbfe" stroke="#2563eb" stroke-width="1.5"/>
<text x="570" y="331" font-size="15" fill="#1d4ed8" text-anchor="middle" letter-spacing="6">− − − − − − − − −</text>
<line x1="465" y1="120" x2="465" y2="300" stroke="#64748b" stroke-width="1.4"/>
<polygon points="465,218 460.5,209 469.5,209" fill="#475569"/>
<line x1="495" y1="120" x2="495" y2="300" stroke="#64748b" stroke-width="1.4"/>
<polygon points="495,218 490.5,209 499.5,209" fill="#475569"/>
<line x1="525" y1="120" x2="525" y2="300" stroke="#64748b" stroke-width="1.4"/>
<polygon points="525,218 520.5,209 529.5,209" fill="#475569"/>
<line x1="555" y1="120" x2="555" y2="300" stroke="#64748b" stroke-width="1.4"/>
<polygon points="555,218 550.5,209 559.5,209" fill="#475569"/>
<line x1="585" y1="120" x2="585" y2="300" stroke="#64748b" stroke-width="1.4"/>
<polygon points="585,218 580.5,209 589.5,209" fill="#475569"/>
<line x1="615" y1="120" x2="615" y2="300" stroke="#64748b" stroke-width="1.4"/>
<polygon points="615,218 610.5,209 619.5,209" fill="#475569"/>
<line x1="645" y1="120" x2="645" y2="300" stroke="#64748b" stroke-width="1.4"/>
<polygon points="645,218 640.5,209 649.5,209" fill="#475569"/>
<line x1="675" y1="120" x2="675" y2="300" stroke="#64748b" stroke-width="1.4"/>
<polygon points="675,218 670.5,209 679.5,209" fill="#475569"/>
<line x1="425" y1="122" x2="425" y2="298" stroke="#1f2937" stroke-width="1.2"/>
<polygon points="425,120 421,129 429,129" fill="#1f2937"/><polygon points="425,300 421,291 429,291" fill="#1f2937"/>
<text x="412" y="215" font-size="15" fill="#1f2937" text-anchor="middle" font-style="italic">d</text>
<text x="712" y="215" font-size="16" fill="#1f2937" text-anchor="middle" font-weight="bold">E</text>
<text x="565" y="372" font-size="13" fill="#1f2937" text-anchor="middle">E = σ/ε₀ = ΔV/d, same at every point (edges ignored)</text>
</svg>
