<svg xmlns="http://www.w3.org/2000/svg" viewBox="0 0 760 350" width="760" height="350" font-family="Helvetica, Arial, sans-serif">
<rect x="1" y="1" width="758" height="348" rx="16" fill="#f8fafc" stroke="#cbd5e1"/>
<text x="380" y="32" text-anchor="middle" font-size="17" font-weight="bold" fill="#1f2937">Trueness and precision: 8 replicate readings from each of 4 instruments</text>
<circle cx="100" cy="160" r="72" fill="#e2e8f0" stroke="#94a3b8" stroke-width="1.2"/>
<circle cx="100" cy="160" r="54" fill="#dbeafe" stroke="#94a3b8" stroke-width="1.2"/>
<circle cx="100" cy="160" r="36" fill="#e2e8f0" stroke="#94a3b8" stroke-width="1.2"/>
<circle cx="100" cy="160" r="18" fill="#fde68a" stroke="#94a3b8" stroke-width="1.2"/>
<circle cx="98.7" cy="162.6" r="4.5" fill="#e11d48" stroke="#f8fafc" stroke-width="1"/>
<circle cx="98.9" cy="158.4" r="4.5" fill="#e11d48" stroke="#f8fafc" stroke-width="1"/>
<circle cx="95.3" cy="158.9" r="4.5" fill="#e11d48" stroke="#f8fafc" stroke-width="1"/>
<circle cx="105.6" cy="162.1" r="4.5" fill="#e11d48" stroke="#f8fafc" stroke-width="1"/>
<circle cx="105.2" cy="161.2" r="4.5" fill="#e11d48" stroke="#f8fafc" stroke-width="1"/>
<circle cx="102.0" cy="160.9" r="4.5" fill="#e11d48" stroke="#f8fafc" stroke-width="1"/>
<circle cx="91.7" cy="164.3" r="4.5" fill="#e11d48" stroke="#f8fafc" stroke-width="1"/>
<circle cx="102.5" cy="162.5" r="4.5" fill="#e11d48" stroke="#f8fafc" stroke-width="1"/>
<path d="M94.0,155.4 L106.0,167.4 M94.0,167.4 L106.0,155.4" stroke="#1f2937" stroke-width="2.4"/>
<text x="100" y="258" text-anchor="middle" font-size="14" font-weight="bold" fill="#1f2937">True and precise</text>
<text x="100" y="277" text-anchor="middle" font-size="13" fill="#1f2937">small b, small σ</text>
<circle cx="290" cy="160" r="72" fill="#e2e8f0" stroke="#94a3b8" stroke-width="1.2"/>
<circle cx="290" cy="160" r="54" fill="#dbeafe" stroke="#94a3b8" stroke-width="1.2"/>
<circle cx="290" cy="160" r="36" fill="#e2e8f0" stroke="#94a3b8" stroke-width="1.2"/>
<circle cx="290" cy="160" r="18" fill="#fde68a" stroke="#94a3b8" stroke-width="1.2"/>
<circle cx="311.5" cy="127.3" r="4.5" fill="#e11d48" stroke="#f8fafc" stroke-width="1"/>
<circle cx="315.6" cy="133.7" r="4.5" fill="#e11d48" stroke="#f8fafc" stroke-width="1"/>
<circle cx="321.5" cy="135.8" r="4.5" fill="#e11d48" stroke="#f8fafc" stroke-width="1"/>
<circle cx="322.6" cy="132.8" r="4.5" fill="#e11d48" stroke="#f8fafc" stroke-width="1"/>
<circle cx="321.5" cy="138.0" r="4.5" fill="#e11d48" stroke="#f8fafc" stroke-width="1"/>
<circle cx="316.7" cy="144.6" r="4.5" fill="#e11d48" stroke="#f8fafc" stroke-width="1"/>
<circle cx="322.8" cy="142.0" r="4.5" fill="#e11d48" stroke="#f8fafc" stroke-width="1"/>
<circle cx="316.9" cy="132.3" r="4.5" fill="#e11d48" stroke="#f8fafc" stroke-width="1"/>
<path d="M312.6,129.8 L324.6,141.8 M312.6,141.8 L324.6,129.8" stroke="#1f2937" stroke-width="2.4"/>
<text x="290" y="258" text-anchor="middle" font-size="14" font-weight="bold" fill="#1f2937">Biased but precise</text>
<text x="290" y="277" text-anchor="middle" font-size="13" fill="#1f2937">large b, small σ</text>
<circle cx="480" cy="160" r="72" fill="#e2e8f0" stroke="#94a3b8" stroke-width="1.2"/>
<circle cx="480" cy="160" r="54" fill="#dbeafe" stroke="#94a3b8" stroke-width="1.2"/>
<circle cx="480" cy="160" r="36" fill="#e2e8f0" stroke="#94a3b8" stroke-width="1.2"/>
<circle cx="480" cy="160" r="18" fill="#fde68a" stroke="#94a3b8" stroke-width="1.2"/>
<circle cx="471.7" cy="157.4" r="4.5" fill="#e11d48" stroke="#f8fafc" stroke-width="1"/>
<circle cx="495.2" cy="166.0" r="4.5" fill="#e11d48" stroke="#f8fafc" stroke-width="1"/>
<circle cx="469.3" cy="137.0" r="4.5" fill="#e11d48" stroke="#f8fafc" stroke-width="1"/>
<circle cx="467.5" cy="189.3" r="4.5" fill="#e11d48" stroke="#f8fafc" stroke-width="1"/>
<circle cx="460.6" cy="165.9" r="4.5" fill="#e11d48" stroke="#f8fafc" stroke-width="1"/>
<circle cx="490.2" cy="124.2" r="4.5" fill="#e11d48" stroke="#f8fafc" stroke-width="1"/>
<circle cx="481.2" cy="191.3" r="4.5" fill="#e11d48" stroke="#f8fafc" stroke-width="1"/>
<circle cx="431.7" cy="152.3" r="4.5" fill="#e11d48" stroke="#f8fafc" stroke-width="1"/>
<path d="M464.9,154.4 L476.9,166.4 M464.9,166.4 L476.9,154.4" stroke="#1f2937" stroke-width="2.4"/>
<text x="480" y="258" text-anchor="middle" font-size="14" font-weight="bold" fill="#1f2937">True but imprecise</text>
<text x="480" y="277" text-anchor="middle" font-size="13" fill="#1f2937">small b, large σ</text>
<circle cx="670" cy="160" r="72" fill="#e2e8f0" stroke="#94a3b8" stroke-width="1.2"/>
<circle cx="670" cy="160" r="54" fill="#dbeafe" stroke="#94a3b8" stroke-width="1.2"/>
<circle cx="670" cy="160" r="36" fill="#e2e8f0" stroke="#94a3b8" stroke-width="1.2"/>
<circle cx="670" cy="160" r="18" fill="#fde68a" stroke="#94a3b8" stroke-width="1.2"/>
<circle cx="697.5" cy="116.4" r="4.5" fill="#e11d48" stroke="#f8fafc" stroke-width="1"/>
<circle cx="711.9" cy="134.5" r="4.5" fill="#e11d48" stroke="#f8fafc" stroke-width="1"/>
<circle cx="664.8" cy="155.9" r="4.5" fill="#e11d48" stroke="#f8fafc" stroke-width="1"/>
<circle cx="716.1" cy="158.7" r="4.5" fill="#e11d48" stroke="#f8fafc" stroke-width="1"/>
<circle cx="702.9" cy="104.8" r="4.5" fill="#e11d48" stroke="#f8fafc" stroke-width="1"/>
<circle cx="714.8" cy="121.3" r="4.5" fill="#e11d48" stroke="#f8fafc" stroke-width="1"/>
<circle cx="689.1" cy="105.6" r="4.5" fill="#e11d48" stroke="#f8fafc" stroke-width="1"/>
<circle cx="676.8" cy="123.3" r="4.5" fill="#e11d48" stroke="#f8fafc" stroke-width="1"/>
<path d="M690.7,121.6 L702.7,133.6 M690.7,133.6 L702.7,121.6" stroke="#1f2937" stroke-width="2.4"/>
<text x="670" y="258" text-anchor="middle" font-size="14" font-weight="bold" fill="#1f2937">Biased and imprecise</text>
<text x="670" y="277" text-anchor="middle" font-size="13" fill="#1f2937">large b, large σ</text>
<circle cx="160" cy="306" r="4.5" fill="#e11d48"/><text x="170" y="310" font-size="12" fill="#1f2937">one reading</text>
<path d="M270,300 L282,312 M270,312 L282,300" stroke="#1f2937" stroke-width="2.4"/><text x="290" y="310" font-size="12" fill="#1f2937">mean of readings</text>
<circle cx="420" cy="306" r="6" fill="#fde68a" stroke="#94a3b8"/><text x="432" y="310" font-size="12" fill="#1f2937">reference (true) value</text>
<text x="380" y="336" text-anchor="middle" font-size="12" fill="#1f2937">Offset of the mean from the center = systematic error b; spread = random error σ</text>
</svg>
